<?xml version="1.0" standalone="no"?>
<!DOCTYPE svg PUBLIC "-//W3C//DTD SVG 20010904//EN"
 "http://www.w3.org/TR/2001/REC-SVG-20010904/DTD/svg10.dtd">
<svg version="1.0" xmlns="http://www.w3.org/2000/svg"
 width="474.000000pt" height="538.000000pt" viewBox="0 0 474.000000 538.000000"
 preserveAspectRatio="xMidYMid meet">
<metadata>
Created by potrace 1.13, written by Peter Selinger 2001-2015
</metadata>
<g transform="translate(0.000000,538.000000) scale(0.100000,-0.100000)"
fill="#000000" stroke="none">
<path d="M1776 5263 c-6 -15 -8 -15 -17 -3 -8 11 -9 10 -4 -7 5 -19 2 -23 -14
-23 -12 0 -21 3 -21 8 0 4 -21 8 -48 9 -33 1 -41 -1 -27 -7 18 -8 17 -9 -7 -9
-16 -1 -28 2 -28 7 0 4 -44 8 -98 8 -71 1 -85 0 -52 -6 35 -5 23 -7 -55 -8
-63 0 -93 3 -80 8 14 6 5 8 -28 5 -42 -2 -81 -15 -48 -15 7 0 9 -5 6 -10 -4
-6 -14 -9 -22 -8 -9 2 -18 -4 -20 -12 -4 -13 -3 -13 7 0 10 13 11 12 6 -3 -3
-10 -6 -20 -6 -21 0 -1 -13 -1 -30 2 -23 3 -30 0 -30 -13 0 -10 -5 -15 -14
-12 -7 3 -44 2 -82 -3 -42 -5 -70 -5 -72 1 -2 5 -22 9 -45 8 -33 0 -38 -2 -22
-9 18 -8 17 -9 -7 -9 -15 -1 -32 -9 -37 -18 -9 -15 -10 -15 -11 -2 0 8 5 20
12 27 7 7 8 12 2 12 -16 0 -35 -50 -29 -71 5 -13 2 -19 -7 -17 -7 2 -12 -3
-10 -11 2 -10 -5 -12 -27 -8 -29 6 -30 5 -25 -22 6 -26 3 -30 -27 -36 -19 -5
-28 -10 -21 -12 7 -3 -1 -14 -20 -27 -53 -35 -58 -38 -58 -27 0 6 5 11 11 11
13 0 39 25 39 39 0 20 -55 -44 -67 -78 -11 -33 -8 -65 6 -56 4 2 5 -9 3 -26
-2 -16 -8 -32 -13 -35 -5 -3 -9 -16 -9 -29 0 -15 -16 -39 -46 -67 -43 -40 -49
-43 -97 -41 -47 1 -48 1 -17 -6 32 -8 33 -8 8 -10 -21 -1 -28 -6 -28 -21 0
-12 -7 -20 -17 -20 -10 0 -25 -5 -33 -11 -12 -8 -9 -9 12 -5 l27 6 -25 -25
c-14 -14 -29 -25 -34 -25 -5 0 -10 -10 -12 -22 -2 -13 -10 -23 -18 -23 -8 -1
-14 -6 -13 -13 2 -7 -2 -12 -8 -12 -6 0 -26 -12 -45 -26 -19 -15 -37 -24 -40
-21 -3 3 8 13 25 22 17 8 31 20 31 25 0 15 -20 12 -26 -5 -3 -8 -13 -17 -22
-20 -30 -9 -46 -60 -33 -110 7 -30 8 -52 1 -70 -6 -14 -10 -43 -10 -64 0 -20
-6 -43 -12 -50 -11 -11 -10 -12 1 -6 11 7 12 4 5 -11 -5 -10 -11 -116 -14
-234 -4 -118 -7 -216 -8 -217 -1 -2 -7 -3 -14 -3 -9 0 -9 3 0 12 9 9 11 67 10
213 l-3 200 -2 -195 c-2 -107 -6 -202 -10 -210 -3 -8 -7 -19 -7 -24 -1 -5 -7
-11 -15 -14 -9 -3 -11 0 -5 9 7 12 5 12 -9 0 -9 -7 -17 -19 -17 -25 0 -6 5 -4
10 4 7 11 10 4 10 -25 0 -22 8 -51 17 -65 16 -23 16 -23 -3 -16 -16 6 -17 5
-6 -6 7 -7 18 -13 25 -13 7 -1 11 -6 9 -13 -2 -13 25 -72 34 -72 2 0 -3 15
-12 33 l-16 32 31 -34 c17 -19 31 -39 31 -43 0 -5 4 -7 9 -4 8 6 23 -17 25
-38 1 -5 7 -11 15 -14 9 -3 11 0 6 9 -5 8 -4 10 0 6 5 -4 11 -19 12 -33 2 -13
17 -46 33 -71 18 -28 30 -62 31 -82 1 -33 2 -34 9 -11 6 18 8 20 9 7 1 -10 8
-25 16 -33 8 -9 15 -24 15 -34 0 -10 5 -22 12 -26 7 -5 9 0 6 14 -6 21 -5 21
17 4 13 -9 21 -20 19 -23 -5 -8 22 -19 44 -18 14 0 13 2 -3 9 -13 5 -14 9 -5
9 17 0 60 -17 46 -18 -15 -1 27 -30 44 -31 13 0 13 1 0 11 -12 8 -12 10 -1 7
8 -2 19 -13 25 -23 6 -11 18 -26 26 -35 14 -13 14 -14 0 -5 -8 5 -21 16 -28
24 -6 8 -12 10 -12 4 0 -6 23 -28 50 -48 28 -21 48 -40 45 -43 -3 -4 -10 0
-15 8 -8 13 -10 12 -10 -2 0 -21 47 -31 110 -24 25 2 48 5 53 5 4 1 7 7 7 15
0 19 22 26 85 26 30 0 60 6 67 13 16 15 3 14 204 16 113 1 163 4 159 12 -4 6
-19 7 -37 3 l-31 -6 21 22 c11 12 18 30 15 39 -3 12 -2 13 4 3 5 -7 23 -14 40
-15 17 -1 29 -5 26 -9 -2 -5 1 -8 6 -8 6 0 11 5 11 10 0 7 29 10 78 8 l77 -3
3 -39 c3 -29 6 -36 13 -25 6 10 9 11 9 1 0 -7 5 -10 12 -6 6 4 8 3 5 -3 -4 -6
3 -19 15 -29 12 -11 18 -13 14 -6 -4 6 -2 12 3 12 6 0 11 -3 11 -7 0 -5 42 -9
92 -10 51 -1 94 -6 96 -11 2 -6 14 -23 28 -39 17 -20 24 -40 24 -70 0 -24 -4
-43 -10 -43 -5 0 -10 -5 -10 -11 0 -5 5 -7 10 -4 6 4 10 -6 9 -22 0 -15 -3
-22 -6 -15 -10 24 -43 -56 -42 -100 l2 -43 6 47 c4 27 12 53 18 59 7 7 8 -5 2
-41 -11 -68 -19 -91 -29 -85 -5 3 -11 1 -15 -5 -3 -5 -2 -10 2 -10 5 0 9 -9
10 -20 1 -13 -2 -18 -10 -14 -7 4 -8 3 -4 -2 5 -5 14 -9 20 -9 7 0 12 -7 12
-15 1 -8 6 -14 13 -12 7 1 11 -4 10 -10 -2 -7 3 -12 10 -10 6 1 11 -1 11 -5
-3 -18 2 -34 9 -30 4 3 15 -6 25 -19 10 -13 13 -24 8 -24 -6 0 -15 8 -20 18
-8 14 -10 14 -11 2 0 -9 9 -23 20 -33 24 -20 34 -22 24 -5 -4 7 -3 10 1 5 5
-4 10 -17 12 -28 4 -30 28 -49 58 -49 24 0 26 -3 21 -24 -4 -18 -1 -28 11 -35
17 -10 17 -10 1 -11 -10 0 -18 -4 -18 -10 0 -5 5 -10 10 -10 6 0 10 -11 10
-25 0 -14 5 -25 11 -25 5 0 7 5 3 12 -5 7 -3 8 5 4 7 -5 10 -14 7 -22 -3 -8
-1 -14 4 -14 6 0 10 -13 10 -28 0 -16 7 -37 15 -48 8 -10 14 -26 15 -34 0 -24
-38 45 -43 76 -3 22 -4 19 -6 -12 -1 -29 4 -44 14 -48 8 -3 15 -17 15 -31 0
-20 -5 -25 -26 -25 l-25 0 23 -32 c13 -18 28 -46 33 -63 7 -19 17 -29 28 -29
15 2 17 -8 17 -68 0 -43 -4 -67 -10 -63 -5 3 -10 -1 -10 -9 0 -9 -7 -16 -15
-16 -8 0 -15 -5 -15 -11 0 -5 4 -7 10 -4 6 3 10 2 10 -4 0 -6 -12 -9 -27 -7
-16 2 -23 1 -16 -1 8 -3 7 -10 -5 -22 -9 -10 -20 -16 -23 -15 -10 5 -31 -75
-23 -88 4 -6 3 -8 -4 -4 -6 3 -13 2 -17 -4 -3 -5 -2 -10 4 -10 6 0 8 -7 5 -15
-4 -8 -10 -12 -15 -9 -5 3 -9 -27 -9 -68 0 -40 -3 -83 -6 -95 -5 -18 -2 -23
12 -23 9 0 15 -3 11 -6 -3 -4 0 -19 8 -35 9 -16 14 -34 13 -40 -2 -6 3 -14 11
-17 9 -3 11 0 6 9 -6 10 -5 11 3 4 6 -5 12 -23 14 -39 2 -16 9 -31 16 -32 7
-1 8 0 2 3 -5 2 -10 11 -10 20 0 12 2 12 13 1 35 -35 50 -101 25 -111 -9 -4
-8 -6 3 -6 16 -1 43 -67 33 -83 -3 -4 0 -8 6 -8 8 0 9 -25 4 -84 -3 -46 -3
-86 2 -89 5 -3 8 16 7 41 l-2 47 7 -45 c4 -25 11 -51 16 -59 7 -10 6 -12 -4
-6 -10 6 -12 4 -7 -9 4 -10 7 -20 7 -22 0 -3 4 -3 9 1 5 3 12 1 16 -5 3 -5 2
-10 -3 -10 -5 0 -7 -11 -4 -25 2 -14 8 -25 13 -25 4 0 9 -28 11 -62 l3 -62 34
-1 c20 -1 39 -9 47 -20 21 -28 7 -31 -15 -4 -11 13 -20 18 -21 12 0 -7 5 -13
10 -13 6 0 10 -7 10 -15 0 -8 7 -15 16 -15 8 0 13 -4 9 -9 -3 -5 -1 -12 5 -16
5 -3 10 2 10 12 0 14 2 15 9 4 5 -7 6 -22 3 -33 -3 -14 1 -21 17 -25 19 -5 31
-43 13 -43 -9 0 -8 -42 2 -58 8 -13 -5 -42 -28 -61 -17 -14 -10 -45 9 -37 20
7 26 -5 12 -22 -10 -13 -8 -14 15 -10 18 3 25 1 21 -8 -2 -7 5 -17 16 -24 12
-6 21 -17 21 -25 0 -19 67 -47 104 -43 16 2 33 11 37 21 28 56 17 52 155 49
93 -2 125 0 114 7 -11 8 -8 10 16 5 25 -5 35 -1 50 18 11 14 25 23 33 20 8 -3
11 0 7 7 -5 7 1 11 13 11 12 0 20 6 18 13 -1 6 4 11 11 10 6 -2 12 1 12 6 0 5
12 16 26 26 15 9 23 12 20 6 -4 -6 -2 -11 4 -11 7 0 14 9 17 20 3 11 10 20 15
20 5 0 6 -6 2 -13 -5 -8 -2 -8 9 2 9 7 17 19 17 25 0 6 -5 4 -10 -4 -6 -9 -10
-10 -10 -3 0 12 39 39 52 35 3 -1 9 5 12 14 4 10 2 13 -7 8 -6 -3 2 6 18 20
17 15 40 31 53 36 12 5 27 21 34 35 6 14 15 25 20 25 4 0 8 4 8 10 0 5 -8 6
-17 3 -10 -4 -3 7 14 24 18 17 41 34 53 38 13 4 23 18 27 36 3 16 10 29 15 29
6 0 8 38 5 94 -2 52 -1 94 2 94 14 -4 51 14 46 22 -3 4 4 10 15 13 12 3 18 1
14 -5 -4 -6 -1 -8 7 -6 8 3 13 11 11 18 -2 7 3 10 12 7 9 -4 18 -1 22 5 5 7 2
8 -7 3 -12 -8 -12 -6 -1 8 8 9 18 15 23 14 5 -1 10 58 12 136 2 114 -1 141
-13 150 -12 9 -13 9 -2 -3 6 -8 12 -21 12 -30 0 -9 -6 -5 -13 10 -9 18 -10 30
-3 42 6 9 12 15 14 13 2 -2 12 5 23 16 10 10 28 19 39 19 11 0 20 4 20 8 0 5
16 14 35 22 36 14 77 50 57 50 -6 0 -12 -5 -14 -11 -2 -7 -10 -10 -18 -7 -9 3
-3 9 17 18 17 8 29 19 26 25 -4 5 -3 7 1 3 11 -9 66 12 66 25 0 7 -4 7 -12 -1
-7 -7 -17 -12 -22 -12 -6 0 5 10 24 23 49 31 80 59 75 67 -2 4 7 18 20 30 14
13 25 21 25 17 0 -3 -10 -15 -22 -27 -12 -11 -17 -20 -11 -20 12 0 43 33 43
46 0 6 16 25 35 44 19 19 35 41 35 50 0 23 -30 61 -42 54 -6 -4 -8 -2 -4 4 3
6 2 13 -4 17 -5 3 -10 15 -10 26 0 10 -5 19 -10 19 -6 0 -8 20 -4 53 4 34 1
63 -7 82 -8 17 -14 48 -14 69 0 22 -5 41 -11 43 -7 2 -9 -8 -6 -29 2 -18 2
-31 -1 -27 -4 3 -7 19 -9 37 -1 18 -6 32 -11 32 -5 0 -7 15 -6 33 2 18 0 38
-5 45 -4 7 -5 26 -1 42 4 19 3 30 -4 30 -6 0 -11 9 -11 19 0 11 -4 21 -9 23
-5 2 -12 21 -15 43 -6 35 -3 45 18 70 14 16 22 33 19 38 -3 6 -1 7 5 3 7 -4
12 -1 12 6 0 10 3 9 11 -2 8 -12 9 -9 5 11 -4 19 -1 29 9 33 8 3 15 1 15 -5 0
-6 5 -7 10 -4 6 4 8 11 5 16 -4 5 3 9 14 9 14 0 21 6 21 19 0 11 9 23 20 26
19 6 26 21 34 75 2 16 9 24 19 22 19 -3 61 54 51 70 -4 7 -4 10 1 6 4 -4 16 4
27 17 11 14 24 23 29 19 14 -8 76 15 83 31 3 9 19 15 38 15 18 0 40 5 48 10
10 6 11 10 3 10 -7 0 -13 5 -13 10 0 6 6 10 13 10 17 1 50 48 43 65 -3 10 0
12 11 8 12 -5 14 -3 8 7 -6 10 -4 12 8 7 12 -5 17 -1 17 13 0 32 1 34 18 54
13 15 14 18 2 12 -9 -4 -8 -2 3 7 9 8 17 25 17 38 0 13 10 35 21 49 11 14 17
19 13 11 -5 -9 -3 -12 4 -7 7 4 12 20 12 36 0 38 9 60 24 54 7 -3 17 14 26 43
7 27 20 54 27 61 7 7 13 21 13 30 -1 12 -5 10 -15 -8 -17 -30 -20 -21 -4 14 7
14 16 23 22 19 5 -3 7 3 3 14 -3 11 1 27 10 39 8 10 13 13 9 7 -3 -7 -2 -13 3
-13 14 0 22 37 22 108 0 52 -3 62 -17 62 -16 0 -16 -2 -3 -11 12 -9 12 -10 -3
-5 -10 3 -28 6 -40 7 -20 1 -20 2 3 9 29 9 6 13 -28 4 -12 -4 -22 -11 -21 -18
4 -23 -14 -46 -35 -45 -20 0 -20 1 2 10 15 5 20 13 16 21 -6 9 -9 9 -12 0 -2
-7 -10 -12 -18 -12 -8 0 -14 -4 -14 -9 0 -5 -14 -13 -32 -16 -17 -4 -38 -14
-46 -21 -9 -10 -35 -14 -80 -12 -65 1 -65 1 -22 8 28 5 5 6 -62 4 -104 -4
-141 6 -107 27 10 6 11 9 2 9 -7 0 -13 11 -13 25 0 14 -4 25 -10 25 -5 0 -10
5 -10 11 0 5 5 7 10 4 6 -3 10 -1 10 4 0 6 -4 11 -10 11 -5 0 -10 14 -10 31 0
23 -4 30 -14 26 -8 -3 -20 2 -28 11 -12 16 -11 16 7 2 20 -15 20 -14 1 8 -20
24 -41 30 -31 10 4 -7 -3 -2 -14 12 -11 14 -21 22 -21 18 0 -15 -40 32 -40 47
0 8 -5 15 -11 15 -5 0 -7 -6 -3 -12 4 -7 -5 -2 -20 12 -14 13 -25 29 -22 36 3
7 -5 20 -16 31 -12 10 -18 12 -14 6 4 -7 2 -13 -3 -13 -6 0 -11 9 -11 20 0 11
-5 20 -11 20 -5 0 -7 -5 -3 -12 4 -7 3 -8 -5 -4 -6 4 -9 11 -6 16 3 5 -2 13
-12 18 -12 7 -17 21 -15 49 2 28 0 34 -8 23 -5 -8 -10 -13 -11 -10 -7 43 -12
57 -26 81 -9 15 -20 26 -25 23 -5 -3 -7 -2 -6 3 1 4 -4 24 -11 43 -8 19 -13
47 -12 63 2 15 -3 27 -9 27 -8 0 -11 14 -8 42 3 33 -1 47 -17 63 -11 11 -23
20 -27 20 -4 0 -14 10 -23 22 -8 12 -25 24 -38 26 -19 4 -18 4 5 6 20 1 31 -6
42 -26 8 -16 15 -23 16 -18 1 24 -32 55 -58 55 -15 0 -38 10 -52 21 l-25 21
28 -16 c15 -9 27 -12 27 -6 0 6 -6 13 -14 16 -16 6 -56 77 -55 97 0 7 4 3 9
-8 8 -19 9 -19 9 3 1 12 -3 22 -9 22 -5 0 -10 8 -10 18 -1 9 -12 30 -25 46
-18 23 -22 34 -14 49 9 15 7 20 -10 24 -16 4 -19 11 -15 28 3 13 0 26 -7 30
-8 5 -10 4 -5 -3 4 -8 2 -10 -7 -6 -9 3 -13 13 -9 26 4 18 2 20 -16 16 -20 -6
-50 16 -51 37 -1 6 -5 10 -10 10 -5 0 -13 4 -18 9 -5 6 -2 6 6 1 11 -6 13 -4
8 9 -4 10 -7 22 -7 27 0 6 -4 8 -9 5 -5 -3 -8 12 -7 34 1 26 -3 41 -12 45 -20
7 -24 6 -17 -5 3 -6 -1 -7 -10 -4 -24 10 -285 10 -285 1 0 -5 -13 0 -30 9 -16
10 -27 20 -25 22 3 3 13 -1 22 -9 17 -13 17 -13 3 5 -12 15 -24 17 -73 14 -36
-3 -62 -10 -68 -19 -7 -12 -9 -11 -9 2 0 9 -7 22 -15 29 -8 7 -13 16 -10 20 3
5 1 11 -5 15 -5 3 -10 2 -10 -3 0 -15 -43 -2 -57 16 -8 9 -13 11 -13 4 0 -6
-7 -9 -16 -5 -13 5 -13 7 -2 14 8 5 -14 9 -55 9 -100 0 -148 -33 -117 -80 7
-11 10 -7 10 17 0 34 22 54 57 52 10 -1 5 -5 -13 -11 -29 -9 -33 -15 -39 -64
-4 -31 -2 -61 4 -73 15 -27 14 -28 -13 -33 -18 -4 -23 -1 -19 10 5 12 2 12
-16 3 -12 -7 -21 -8 -20 -4 4 22 -3 33 -18 33 -16 0 -16 -2 -3 -11 12 -9 12
-10 -3 -5 -10 3 -47 6 -82 6 -59 0 -63 2 -74 28 -6 15 -10 45 -9 67 l3 40 -45
3 c-25 2 -81 4 -125 6 -74 4 -75 3 -20 -4 l60 -7 -58 1 c-31 1 -57 5 -56 9 2
15 -54 67 -70 66 -14 0 -14 -1 -1 -6 22 -8 50 -34 50 -47 0 -6 -7 0 -16 12 -8
12 -25 22 -37 22 -34 0 -45 12 -41 44 3 26 2 27 -11 10 -8 -11 -15 -16 -15
-13 0 12 47 68 53 62 4 -3 18 0 32 7 26 14 31 35 15 60 -8 13 -13 13 -31 2
-11 -7 -24 -11 -27 -8 -3 3 0 6 7 6 8 0 10 7 6 20 -4 13 -1 22 9 26 9 3 16 17
16 30 0 21 -3 23 -32 17 -22 -4 -29 -3 -24 5 5 9 -9 12 -47 12 -43 0 -56 -4
-61 -17z m589 -1372 c57 -25 124 -93 155 -156 19 -41 24 -66 24 -135 1 -78 -2
-90 -33 -148 -50 -92 -133 -152 -230 -168 -23 -4 -41 -9 -41 -13 2 -40 129
-1053 133 -1057 3 -3 16 0 29 6 22 11 22 11 -2 -9 -14 -11 -29 -21 -34 -21 -5
0 -2 -8 5 -17 12 -16 12 -17 -2 -5 -10 8 -17 28 -17 55 -1 23 -29 265 -62 537
-33 272 -60 501 -60 508 0 6 -11 12 -25 12 -28 0 -115 28 -129 41 -20 18 2 18
52 -1 79 -30 92 -27 93 18 1 38 3 37 13 -10 8 -34 26 -35 99 -8 236 88 264
407 47 537 -30 19 -75 36 -102 39 -26 4 -48 11 -48 17 0 14 83 1 135 -22z"/>
</g>
</svg>
